<?xml version="1.0" standalone="no"?><!DOCTYPE svg PUBLIC "-//W3C//DTD SVG 1.1//EN" "http://www.w3.org/Graphics/SVG/1.1/DTD/svg11.dtd"><svg t="1627377080259" class="icon" viewBox="0 0 1024 1024" version="1.1" xmlns="http://www.w3.org/2000/svg" p-id="2439" xmlns:xlink="http://www.w3.org/1999/xlink" width="200" height="200"><defs><style type="text/css">@font-face { font-family: feedback-iconfont; src: url("//at.alicdn.com/t/font_1031158_1uhr8ri0pk5.eot?#iefix") format("embedded-opentype"), url("//at.alicdn.com/t/font_1031158_1uhr8ri0pk5.woff2") format("woff2"), url("//at.alicdn.com/t/font_1031158_1uhr8ri0pk5.woff") format("woff"), url("//at.alicdn.com/t/font_1031158_1uhr8ri0pk5.ttf") format("truetype"), url("//at.alicdn.com/t/font_1031158_1uhr8ri0pk5.svg#iconfont") format("svg"); }
</style></defs><path d="M512 512H0A512 512 0 1 0 512 0 512 512 0 0 0 0 512z" fill="#606266" p-id="2440"></path><path d="M688.658963 237.188741L464.402963 305.682963a32.464593 32.464593 0 0 1-39.822222-23.514074 35.309037 35.309037 0 0 1 22.110815-42.439111l224.256-68.494222a32.047407 32.047407 0 0 1 32.995555 7.395555 35.195259 35.195259 0 0 1-15.322074 58.747259zM473.315556 338.678519l224.256-68.532149 61.933037 231.082667-224.218074 68.494222-62.008889-230.968889z m312.775111 261.423407l-224.218074 68.494222a32.426667 32.426667 0 0 1-40.846223-23.134815 35.233185 35.233185 0 0 1 23.134815-42.81837l224.218074-68.494222a32.426667 32.426667 0 0 1 40.846222 23.134815 35.233185 35.233185 0 0 1-23.021037 42.856296zM90.680889 527.018667l404.745481-105.889186 17.711408 66.029038-395.946667 138.846814a48.734815 48.734815 0 0 1-61.402074-34.853926 53.096296 53.096296 0 0 1 34.891852-64.246518z" fill="#FFFFFF" p-id="2441"></path><path d="M776.38163 622.971259m-204.534519 0a204.534519 204.534519 0 1 0 409.069037 0 204.534519 204.534519 0 1 0-409.069037 0Z" fill="#606266" p-id="2442"></path><path d="M776.38163 623.009185m-170.666667 0a170.666667 170.666667 0 1 0 341.333333 0 170.666667 170.666667 0 1 0-341.333333 0Z" fill="#FFFFFF" p-id="2443"></path><path d="M780.325926 533.807407v-42.287407a12.363852 12.363852 0 0 1 21.086815-8.722963l79.644444 79.644444a12.363852 12.363852 0 0 1 0 17.483852l-79.644444 79.644445a12.363852 12.363852 0 0 1-21.086815-8.722963v-45.511111c-28.254815 0-79.834074-3.147852-79.834074 66.977185a74.221037 74.221037 0 0 0 63.525926 70.46637 119.314963 119.314963 0 0 1-95.876741-106.685629c0-86.053926 91.022222-101.869037 112.184889-102.286223z" fill="#606266" p-id="2444"></path></svg>