<?xml version="1.0" standalone="no"?><!DOCTYPE svg PUBLIC "-//W3C//DTD SVG 1.1//EN" "http://www.w3.org/Graphics/SVG/1.1/DTD/svg11.dtd"><svg t="1627377117871" class="icon" viewBox="0 0 1024 1024" version="1.1" xmlns="http://www.w3.org/2000/svg" p-id="3115" xmlns:xlink="http://www.w3.org/1999/xlink" width="200" height="200"><defs><style type="text/css">@font-face { font-family: feedback-iconfont; src: url("//at.alicdn.com/t/font_1031158_1uhr8ri0pk5.eot?#iefix") format("embedded-opentype"), url("//at.alicdn.com/t/font_1031158_1uhr8ri0pk5.woff2") format("woff2"), url("//at.alicdn.com/t/font_1031158_1uhr8ri0pk5.woff") format("woff"), url("//at.alicdn.com/t/font_1031158_1uhr8ri0pk5.ttf") format("truetype"), url("//at.alicdn.com/t/font_1031158_1uhr8ri0pk5.svg#iconfont") format("svg"); }
</style></defs><path d="M512 512H0A512 512 0 1 0 512 0 512 512 0 0 0 0 512z" fill="#606266" p-id="3116"></path><path d="M147.380148 530.583704l2.996148 3.489185 331.548445-318.767408h302.838518a41.301333 41.301333 0 0 0-41.149629-41.225481h-261.423408a41.111704 41.111704 0 0 0-29.278815 12.174222l-231.917037 221.828741-0.227555-0.379259-70.656 67.584a40.922074 40.922074 0 0 0-2.730667 55.296z" fill="#FFFFFF" p-id="3117"></path><path d="M165.432889 600.974222v-0.682666a32.919704 32.919704 0 0 1 0-3.527112 5.082074 5.082074 0 0 1 0-0.64474c0-1.175704 0.303407-2.313481 0.530963-3.489185a41.14963 41.14963 0 0 1 11.377778-21.124741l316.264296-302.497185a41.187556 41.187556 0 0 1 29.278815-12.136297h261.461333a41.301333 41.301333 0 0 1 41.263407 41.301334v262.257777h-0.189629a41.035852 41.035852 0 0 1-14.070519 30.340741v0.18963l-343.191703 316.378074a41.035852 41.035852 0 0 1-19.531852 9.557333h-0.948148l-2.768593 0.417185h-3.982222a41.263407 41.263407 0 0 1-31.440593-14.563555l-234.230518-275.228445a40.96 40.96 0 0 1-9.822815-26.548148z m550.646518-178.972444a55.068444 55.068444 0 1 0-55.068444-55.068445 55.068444 55.068444 0 0 0 55.068444 55.068445z" fill="#FFFFFF" p-id="3118"></path><path d="M305.796741 606.852741a176.241778 176.203852 90 1 0 352.407703 0 176.241778 176.203852 90 1 0-352.407703 0Z" fill="#606266" p-id="3119"></path><path d="M486.4 545.109333v-40.884148a11.946667 11.946667 0 0 1 20.404148-8.457481l76.951704 76.951703a11.946667 11.946667 0 0 1 0 16.877037l-76.837926 77.103408a11.946667 11.946667 0 0 1-20.404148-8.457482v-44.221629c-27.306667 0-77.179259-3.034074-77.179259 64.739555a71.755852 71.755852 0 0 0 61.402074 68.266667 115.332741 115.332741 0 0 1-92.766815-103.082667c0-83.13363 87.988148-98.607407 108.430222-98.834963z" fill="#FFFFFF" p-id="3120"></path></svg>