<?xml version="1.0" standalone="no"?><!DOCTYPE svg PUBLIC "-//W3C//DTD SVG 1.1//EN" "http://www.w3.org/Graphics/SVG/1.1/DTD/svg11.dtd"><svg t="1627377036770" class="icon" viewBox="0 0 1024 1024" version="1.1" xmlns="http://www.w3.org/2000/svg" p-id="2038" xmlns:xlink="http://www.w3.org/1999/xlink" width="200" height="200"><defs><style type="text/css">@font-face { font-family: feedback-iconfont; src: url("//at.alicdn.com/t/font_1031158_1uhr8ri0pk5.eot?#iefix") format("embedded-opentype"), url("//at.alicdn.com/t/font_1031158_1uhr8ri0pk5.woff2") format("woff2"), url("//at.alicdn.com/t/font_1031158_1uhr8ri0pk5.woff") format("woff"), url("//at.alicdn.com/t/font_1031158_1uhr8ri0pk5.ttf") format("truetype"), url("//at.alicdn.com/t/font_1031158_1uhr8ri0pk5.svg#iconfont") format("svg"); }
</style></defs><path d="M512-0.037926A512 512 0 1 1 0 511.962074a512 512 0 0 1 512-512z" fill="#606266" p-id="2039"></path><path d="M554.932148 688.886519v-10.315852c0-2.730667 0.303407-5.764741 0.606815-9.40563h-164.598519a40.466963 40.466963 0 0 1-29.696-12.136296 40.96 40.96 0 0 1-12.439703-29.999408 41.718519 41.718519 0 0 1 12.439703-30.34074 39.632593 39.632593 0 0 1 29.696-12.439704h193.687704a185.837037 185.837037 0 0 1 66.977185-63.943111 179.503407 179.503407 0 0 1 91.553186-23.931259c3.792593 0 7.281778 0 11.377777 0.303407l12.136297 0.910222V339.361185a20.593778 20.593778 0 0 0-9.102223-16.990815l-151.703703-104.561777a25.334519 25.334519 0 0 0-14.866963-4.551112H290.322963a23.893333 23.893333 0 0 0-17.59763 7.585186 26.206815 26.206815 0 0 0-7.281777 18.204444v534.072889a26.206815 26.206815 0 0 0 7.281777 18.204444 25.106963 25.106963 0 0 0 17.59763 7.585186h297.339259a190.994963 190.994963 0 0 1-24.538074-50.631111 230.286222 230.286222 0 0 1-8.192-59.392z m-193.422222-263.395556a40.466963 40.466963 0 0 1 29.696-12.136296H640.948148a40.466963 40.466963 0 0 1 29.696 12.136296 40.96 40.96 0 0 1 12.439704 29.999407 41.718519 41.718519 0 0 1-12.439704 30.340741 39.632593 39.632593 0 0 1-29.696 12.439704h-249.742222a40.77037 40.77037 0 0 1-29.696-12.439704 42.135704 42.135704 0 0 1-12.439704-30.340741 42.704593 42.704593 0 0 1 12.439704-29.999407z m499.825778 197.935407a150.300444 150.300444 0 0 0-29.696-44.86637 137.671111 137.671111 0 0 0-43.652741-30.340741 128 128 0 0 0-53.665185-11.377778 126.255407 126.255407 0 0 0-53.096297 11.377778 141.956741 141.956741 0 0 0-73.34874 75.169185 141.842963 141.842963 0 0 0 0 109.112889 150.300444 150.300444 0 0 0 29.696 44.866371 137.671111 137.671111 0 0 0 43.65274 30.34074 126.255407 126.255407 0 0 0 53.096297 11.377778 128 128 0 0 0 53.665185-11.377778 141.956741 141.956741 0 0 0 73.348741-75.169185 138.505481 138.505481 0 0 0 10.922666-54.878815 136.533333 136.533333 0 0 0-10.922666-54.272z m-34.133334 67.280593a20.29037 20.29037 0 0 1-13.95674 6.068148l-59.392 0.910222-1.517037 59.088593a20.745481 20.745481 0 0 1-19.986963 19.986963 18.507852 18.507852 0 0 1-13.653334-5.461333 18.090667 18.090667 0 0 1-5.76474-13.653334l0.910222-58.785185-59.695408 0.606815a18.507852 18.507852 0 0 1-13.653333-5.461333 16.801185 16.801185 0 0 1-5.461333-13.653334 18.962963 18.962963 0 0 1 6.068148-13.956741 20.29037 20.29037 0 0 1 13.956741-6.068148l59.695407-1.517037 0.910222-58.785185a18.962963 18.962963 0 0 1 6.068148-13.956741 20.29037 20.29037 0 0 1 13.956741-6.068148 18.507852 18.507852 0 0 1 13.653333 5.461334 16.801185 16.801185 0 0 1 5.461334 13.653333l-0.606815 59.088592 59.392-0.910222a18.507852 18.507852 0 0 1 13.653333 5.461334 20.517926 20.517926 0 0 1 0 27.875555z" fill="#FFFFFF" p-id="2040"></path></svg>