<?xml version="1.0" standalone="no"?><!DOCTYPE svg PUBLIC "-//W3C//DTD SVG 1.1//EN" "http://www.w3.org/Graphics/SVG/1.1/DTD/svg11.dtd"><svg t="1627377048386" class="icon" viewBox="0 0 1024 1024" version="1.1" xmlns="http://www.w3.org/2000/svg" p-id="2171" xmlns:xlink="http://www.w3.org/1999/xlink" width="200" height="200"><defs><style type="text/css">@font-face { font-family: feedback-iconfont; src: url("//at.alicdn.com/t/font_1031158_1uhr8ri0pk5.eot?#iefix") format("embedded-opentype"), url("//at.alicdn.com/t/font_1031158_1uhr8ri0pk5.woff2") format("woff2"), url("//at.alicdn.com/t/font_1031158_1uhr8ri0pk5.woff") format("woff"), url("//at.alicdn.com/t/font_1031158_1uhr8ri0pk5.ttf") format("truetype"), url("//at.alicdn.com/t/font_1031158_1uhr8ri0pk5.svg#iconfont") format("svg"); }
</style></defs><path d="M512 0A512 512 0 1 1 0 512 512 512 0 0 1 512 0z" fill="#606266" p-id="2172"></path><path d="M276.517926 229.224296h141.312a41.718519 41.718519 0 0 1 47.104 47.104v141.312a41.718519 41.718519 0 0 1-47.104 47.104H276.517926a41.718519 41.718519 0 0 1-47.104-47.104V276.328296a41.718519 41.718519 0 0 1 47.104-47.104z m0 329.690074h141.312a41.718519 41.718519 0 0 1 47.104 47.104v141.312a41.718519 41.718519 0 0 1-47.104 47.104H276.517926a41.718519 41.718519 0 0 1-47.104-47.104v-141.312a41.718519 41.718519 0 0 1 47.104-47.104z m329.690074-329.690074h141.312a41.718519 41.718519 0 0 1 47.104 47.104v141.312a41.718519 41.718519 0 0 1-47.104 47.104h-141.312a41.718519 41.718519 0 0 1-47.104-47.104V276.328296a41.718519 41.718519 0 0 1 47.104-47.104z m-47.104 329.690074h188.416a41.718519 41.718519 0 0 1 47.104 47.104v141.312a41.718519 41.718519 0 0 1-47.104 47.104h-141.312a41.718519 41.718519 0 0 1-47.104-47.104v-141.312a41.718519 41.718519 0 0 1 47.104-47.104z" fill="#FFFFFF" p-id="2173"></path></svg>