<?xml version="1.0" standalone="no"?><!DOCTYPE svg PUBLIC "-//W3C//DTD SVG 1.1//EN" "http://www.w3.org/Graphics/SVG/1.1/DTD/svg11.dtd"><svg t="1627377091826" class="icon" viewBox="0 0 1024 1024" version="1.1" xmlns="http://www.w3.org/2000/svg" p-id="2577" xmlns:xlink="http://www.w3.org/1999/xlink" width="200" height="200"><defs><style type="text/css">@font-face { font-family: feedback-iconfont; src: url("//at.alicdn.com/t/font_1031158_1uhr8ri0pk5.eot?#iefix") format("embedded-opentype"), url("//at.alicdn.com/t/font_1031158_1uhr8ri0pk5.woff2") format("woff2"), url("//at.alicdn.com/t/font_1031158_1uhr8ri0pk5.woff") format("woff"), url("//at.alicdn.com/t/font_1031158_1uhr8ri0pk5.ttf") format("truetype"), url("//at.alicdn.com/t/font_1031158_1uhr8ri0pk5.svg#iconfont") format("svg"); }
</style></defs><path d="M512 512H0A512 512 0 1 0 512 0 512 512 0 0 0 0 512z" fill="#606266" p-id="2578"></path><path d="M849.92 462.506667c-29.2864 22.6304-95.470933 24.302933-114.756267 35.669333a135.406933 135.406933 0 0 1-118.203733 23.4496c-57.787733-17.066667-174.08-45.431467-181.486933-65.877333a35.566933 35.566933 0 0 1 39.253333-53.077334c40.448 7.304533 37.956267 7.2704 64.512 12.834134 4.8128 1.297067 8.0896-7.850667 5.0176-12.1856a219.818667 219.818667 0 0 0-108.7488-52.224 156.296533 156.296533 0 0 0-127.6928 31.744c-33.792 24.234667-83.1488 57.378133-100.488533 52.292266a59.528533 59.528533 0 0 1-25.3952-14.336 14.267733 14.267733 0 0 1 1.2288-17.885866c29.2864-31.197867 142.336-143.5648 238.045866-155.136a364.4416 364.4416 0 0 1 196.3008 45.568 1958.434133 1958.434133 0 0 0 247.3984 69.393066 81.578667 81.578667 0 0 1-14.984533 99.771734z" fill="#FFFFFF" p-id="2579"></path><path d="M174.08 561.493333c29.2864-22.6304 95.470933-24.302933 114.756267-35.669333a135.406933 135.406933 0 0 1 118.203733-23.4496c57.787733 17.066667 174.08 45.431467 181.521067 65.877333a35.566933 35.566933 0 0 1-39.253334 53.111467c-40.448-7.338667-37.956267-7.304533-64.512-12.834133-4.8128-1.3312-8.0896 7.850667-5.0176 12.1856a219.818667 219.818667 0 0 0 108.7488 52.189866 156.296533 156.296533 0 0 0 127.658667-31.744c33.792-24.234667 83.1488-57.378133 100.488533-52.292266a59.528533 59.528533 0 0 1 25.3952 14.336 14.267733 14.267733 0 0 1-1.2288 17.885866c-29.2864 31.197867-142.336 143.5648-238.045866 155.136a364.4416 364.4416 0 0 1-196.3008-45.568 1958.468267 1958.468267 0 0 0-247.3984-69.393066A81.578667 81.578667 0 0 1 174.08 561.493333z" fill="#FFFFFF" p-id="2580"></path></svg>