<?xml version="1.0" standalone="no"?><!DOCTYPE svg PUBLIC "-//W3C//DTD SVG 1.1//EN" "http://www.w3.org/Graphics/SVG/1.1/DTD/svg11.dtd"><svg t="1627377098148" class="icon" viewBox="0 0 1024 1024" version="1.1" xmlns="http://www.w3.org/2000/svg" p-id="2711" xmlns:xlink="http://www.w3.org/1999/xlink" width="200" height="200"><defs><style type="text/css">@font-face { font-family: feedback-iconfont; src: url("//at.alicdn.com/t/font_1031158_1uhr8ri0pk5.eot?#iefix") format("embedded-opentype"), url("//at.alicdn.com/t/font_1031158_1uhr8ri0pk5.woff2") format("woff2"), url("//at.alicdn.com/t/font_1031158_1uhr8ri0pk5.woff") format("woff"), url("//at.alicdn.com/t/font_1031158_1uhr8ri0pk5.ttf") format("truetype"), url("//at.alicdn.com/t/font_1031158_1uhr8ri0pk5.svg#iconfont") format("svg"); }
</style></defs><path d="M512 512H0A512 512 0 1 0 512 0 512 512 0 0 0 0 512z" fill="#606266" p-id="2712"></path><path d="M582.959407 197.480296l-187.240296 112.602074a30.340741 30.340741 0 0 1-41.301333-12.288 32.95763 32.95763 0 0 1 10.391703-43.425185l187.240297-112.602074a29.847704 29.847704 0 0 1 31.478518-0.720592 32.843852 32.843852 0 0 1-0.568889 56.433777z m-171.766518 140.325926l187.20237-112.602074 108.088889 195.090963-187.278222 112.867556-108.088889-195.015111z m341.636741 165.963852l-187.202371 112.602074a30.340741 30.340741 0 0 1-42.173629-11.757037 32.881778 32.881778 0 0 1 11.377777-43.918222l187.202371-112.602074a30.340741 30.340741 0 0 1 42.173629 11.757037 32.881778 32.881778 0 0 1-11.491555 44.032zM107.747556 594.564741l342.016-187.126519 30.871703 55.713185-326.618074 214.964149a45.511111 45.511111 0 0 1-63.336296-17.711408 49.303704 49.303704 0 0 1 17.028741-65.991111z m338.944 162.398815a31.55437 31.55437 0 0 1 30.871703-32.161186h277.959111a30.340741 30.340741 0 0 1 21.845334 9.40563 32.843852 32.843852 0 0 1 9.02637 22.755556v32.161185l31.895704-0.682667-1.024 32.768H415.857778l-1.441185-30.833778 30.34074-1.365333a267.45363 267.45363 0 0 0 1.934223-32.085333z" fill="#FFFFFF" p-id="2713"></path></svg>