<?xml version="1.0" standalone="no"?><!DOCTYPE svg PUBLIC "-//W3C//DTD SVG 1.1//EN" "http://www.w3.org/Graphics/SVG/1.1/DTD/svg11.dtd"><svg t="1627377137138" class="icon" viewBox="0 0 1024 1024" version="1.1" xmlns="http://www.w3.org/2000/svg" p-id="3380" xmlns:xlink="http://www.w3.org/1999/xlink" width="200" height="200"><defs><style type="text/css">@font-face { font-family: feedback-iconfont; src: url("//at.alicdn.com/t/font_1031158_1uhr8ri0pk5.eot?#iefix") format("embedded-opentype"), url("//at.alicdn.com/t/font_1031158_1uhr8ri0pk5.woff2") format("woff2"), url("//at.alicdn.com/t/font_1031158_1uhr8ri0pk5.woff") format("woff"), url("//at.alicdn.com/t/font_1031158_1uhr8ri0pk5.ttf") format("truetype"), url("//at.alicdn.com/t/font_1031158_1uhr8ri0pk5.svg#iconfont") format("svg"); }
</style></defs><path d="M511.99999 1023.99998a520.22699 520.22699 0 0 1-52.348999-2.643 513.28899 513.28899 0 0 1-50.836999-7.759c-16.5-3.376-32.999999-7.62-49.066999-12.617a510.19699 510.19699 0 0 1-47.039999-17.216999 511.96499 511.96499 0 0 1-44.755999-21.56 514.05199 514.05199 0 0 1-42.214999-25.645999 516.00999 516.00999 0 0 1-39.415-29.474c-12.585-10.386-24.818-21.5-36.358999-33.044999s-22.662-23.774-33.045999-36.358999a515.50999 515.50999 0 0 1-29.475-39.416 513.36199 513.36199 0 0 1-25.645999-42.213999 511.96499 511.96499 0 0 1-21.56-44.755999 510.30299 510.30299 0 0 1-17.216999-47.039999 509.46599 509.46599 0 0 1-12.617-49.066999 513.28399 513.28399 0 0 1-7.759-50.836999 519.67999 519.67999 0 0 1 0-104.699998 513.28299 513.28299 0 0 1 7.758-50.835999c3.376-16.5 7.62-32.999999 12.617-49.066999a510.19699 510.19699 0 0 1 17.216999-47.039999 511.96499 511.96499 0 0 1 21.56-44.755999 514.05199 514.05199 0 0 1 25.645999-42.214999 516.00999 516.00999 0 0 1 29.474-39.415c10.386-12.585 21.5-24.818 33.044999-36.358999s23.774-22.659 36.358999-33.044999a515.68699 515.68699 0 0 1 39.418-29.476 513.21199 513.21199 0 0 1 42.214999-25.645999 511.96499 511.96499 0 0 1 44.755999-21.56 510.30299 510.30299 0 0 1 47.039999-17.216999c16.063-5 32.571999-9.241 49.066999-12.617a513.28299 513.28299 0 0 1 50.836999-7.759 519.67999 519.67999 0 0 1 104.699998 0 513.28399 513.28399 0 0 1 50.834999 7.758c16.5 3.376 32.999999 7.62 49.066999 12.617a510.19699 510.19699 0 0 1 47.039999 17.216999 511.96499 511.96499 0 0 1 44.755999 21.56 513.86599 513.86599 0 0 1 42.213999 25.645999 516.22399 516.22399 0 0 1 39.416 29.474c12.585 10.386 24.818 21.5 36.358999 33.044999s22.659 23.774 33.044999 36.358999a515.94399 515.94399 0 0 1 29.474 39.415 513.21199 513.21199 0 0 1 25.645999 42.214999 511.96499 511.96499 0 0 1 21.56 44.755999 510.30299 510.30299 0 0 1 17.216999 47.039999c5 16.063 9.241 32.571999 12.617 49.066999a513.28899 513.28899 0 0 1 7.759 50.836999 519.68099 519.68099 0 0 1 0 104.699998 513.28999 513.28999 0 0 1-7.759 50.836999c-3.376 16.5-7.62 32.999999-12.617 49.066999a510.19699 510.19699 0 0 1-17.216999 47.039999 511.96499 511.96499 0 0 1-21.56 44.755999 513.86599 513.86599 0 0 1-25.645999 42.213999 516.22399 516.22399 0 0 1-29.474 39.416c-10.386 12.585-21.5 24.818-33.044999 36.358999s-23.773 22.663-36.357999 33.046999a515.76399 515.76399 0 0 1-39.416 29.474 513.36199 513.36199 0 0 1-42.213999 25.645999 511.96499 511.96499 0 0 1-44.755999 21.56 510.30299 510.30299 0 0 1-47.039999 17.216999 509.46599 509.46599 0 0 1-49.066999 12.617 513.28999 513.28999 0 0 1-50.836999 7.759A520.22699 520.22699 0 0 1 511.99999 1023.99998zM274.941995 271.905995a33.844999 33.844999 0 0 0-33.791 33.723999v421.478992a33.844999 33.844999 0 0 0 33.79 33.722999h474.01399a33.844999 33.844999 0 0 0 33.79-33.722999V305.766994a33.843999 33.843999 0 0 0-33.791-33.723999h-84.719998v-35.7a17.067 17.067 0 0 0-16.793-14.881999h-1.98l2.117 0.138H645.599987a17.066 17.066 0 0 0-14.950999 16.724999v33.724H393.385992v-35.7a17.066 17.066 0 0 0-16.793999-14.881999h-1.979a17.067 17.067 0 0 0-14.951 16.724999v33.724h-84.719998z m355.299993 342.699993h-69.875999a17.068 17.068 0 0 1-14.78-16.726v-2.116a17.067 17.067 0 0 1 16.794-14.745999h26.828999l-56.490998-56.251999L491.27999 565.999989a17.067 17.067 0 0 1-23.892999 0l-95.777998-95.368998a16.793 16.793 0 0 1 0-23.894l0.205-0.239a17.066 17.066 0 0 1 23.892999 0l83.799999 83.454999 35.873999-35.771a30.342999 30.342999 0 0 1 31.027999-3.925l68.948999 68.675999v-30.719999a17.066 17.066 0 0 1 33.859999 0v67.481998a20.786 20.786 0 0 1-18.976999 18.91z" fill="#606266" p-id="3381"></path></svg>