<?xml version="1.0" standalone="no"?><!DOCTYPE svg PUBLIC "-//W3C//DTD SVG 1.1//EN" "http://www.w3.org/Graphics/SVG/1.1/DTD/svg11.dtd"><svg t="1627377067741" class="icon" viewBox="0 0 1024 1024" version="1.1" xmlns="http://www.w3.org/2000/svg" p-id="2304" xmlns:xlink="http://www.w3.org/1999/xlink" width="200" height="200"><defs><style type="text/css">@font-face { font-family: feedback-iconfont; src: url("//at.alicdn.com/t/font_1031158_1uhr8ri0pk5.eot?#iefix") format("embedded-opentype"), url("//at.alicdn.com/t/font_1031158_1uhr8ri0pk5.woff2") format("woff2"), url("//at.alicdn.com/t/font_1031158_1uhr8ri0pk5.woff") format("woff"), url("//at.alicdn.com/t/font_1031158_1uhr8ri0pk5.ttf") format("truetype"), url("//at.alicdn.com/t/font_1031158_1uhr8ri0pk5.svg#iconfont") format("svg"); }
</style></defs><path d="M512 512H0A512 512 0 1 0 512 0 512 512 0 0 0 0 512z" fill="#606266" p-id="2305"></path><path d="M407.817481 716.193185a64.018963 64.018963 0 0 1 23.74163 4.437334 59.126519 59.126519 0 0 1 19.456 12.325925 60.681481 60.681481 0 0 1 13.198222 18.659556 54.840889 54.840889 0 0 1 0 45.511111 60.681481 60.681481 0 0 1-13.198222 18.659556 63.563852 63.563852 0 0 1-19.456 12.629333 60.264296 60.264296 0 0 1-23.74163 4.740741 61.933037 61.933037 0 0 1-24.38637-4.740741 63.563852 63.563852 0 0 1-19.456-12.629333 60.681481 60.681481 0 0 1-13.198222-18.659556 54.840889 54.840889 0 0 1 0-45.511111 60.681481 60.681481 0 0 1 13.198222-18.659556 59.126519 59.126519 0 0 1 19.456-12.325925 65.801481 65.801481 0 0 1 24.38637-4.437334z m274.204445 1.251556a66.597926 66.597926 0 0 1 24.045037 4.437333 58.405926 58.405926 0 0 1 19.759407 12.325926 60.681481 60.681481 0 0 1 13.198223 18.659556 54.840889 54.840889 0 0 1 0 45.511111 60.681481 60.681481 0 0 1-13.198223 18.659555 64.474074 64.474074 0 0 1-43.84237 17.370074 60.264296 60.264296 0 0 1-23.74163-4.74074 63.563852 63.563852 0 0 1-19.456-12.629334 60.681481 60.681481 0 0 1-13.198222-18.659555 54.840889 54.840889 0 0 1 0-45.511111 60.681481 60.681481 0 0 1 13.198222-18.659556 59.126519 59.126519 0 0 1 19.456-12.325926 64.018963 64.018963 0 0 1 23.779556-4.399407z m110.743704-359.082667a69.783704 69.783704 0 0 1 28.672 4.740741 32.312889 32.312889 0 0 1 14.487703 11.681185 25.713778 25.713778 0 0 1 3.792593 14.866963 47.672889 47.672889 0 0 1-2.313482 13.577481q-1.972148 5.688889-8.571259 23.400297t-14.184296 38.874074q-7.585185 21.162667-15.17037 42.021926t-12.212149 32.881778a72.286815 72.286815 0 0 1-21.428148 35.081481 51.2 51.2 0 0 1-31.971555 9.784889h-345.808593l9.216 56.888889h332.875852q31.630222 0 31.630222 25.903407a37.925926 37.925926 0 0 1-6.257778 21.807408 28.103111 28.103111 0 0 1-24.727703 9.178074h-345.391408a40.201481 40.201481 0 0 1-22.072889-5.688889 48.924444 48.924444 0 0 1-14.829037-14.866963 88.594963 88.594963 0 0 1-9.557333-19.911111 176.014222 176.014222 0 0 1-5.613037-20.214519q-0.644741-3.792593-3.792593-18.318222t-7.243851-36.333037l-9.557334-48.658963-10.543407-54.044444q-12.515556-63.829333-28.330667-142.222223h-49.303704a27.496296 27.496296 0 0 1-16.459851-4.74074 41.946074 41.946074 0 0 1-10.884741-11.377778 42.780444 42.780444 0 0 1-5.916445-14.222222 65.915259 65.915259 0 0 1-1.630814-13.918815 27.154963 27.154963 0 0 1 8.912592-20.85926 34.133333 34.133333 0 0 1 24.045037-8.229925h66.522074a49.303704 49.303704 0 0 1 21.086815 3.792592 35.612444 35.612444 0 0 1 12.515556 9.481482 36.181333 36.181333 0 0 1 6.599111 12.022518l3.299555 10.733037a137.102222 137.102222 0 0 1 2.654815 14.222222l2.654815 18.659556q1.972148 11.377778 3.792593 24.007111z" fill="#FFFFFF" p-id="2306"></path></svg>