<?xml version="1.0" standalone="no"?><!DOCTYPE svg PUBLIC "-//W3C//DTD SVG 1.1//EN" "http://www.w3.org/Graphics/SVG/1.1/DTD/svg11.dtd"><svg t="1627377108664" class="icon" viewBox="0 0 1024 1024" version="1.1" xmlns="http://www.w3.org/2000/svg" p-id="2981" xmlns:xlink="http://www.w3.org/1999/xlink" width="200" height="200"><defs><style type="text/css">@font-face { font-family: feedback-iconfont; src: url("//at.alicdn.com/t/font_1031158_1uhr8ri0pk5.eot?#iefix") format("embedded-opentype"), url("//at.alicdn.com/t/font_1031158_1uhr8ri0pk5.woff2") format("woff2"), url("//at.alicdn.com/t/font_1031158_1uhr8ri0pk5.woff") format("woff"), url("//at.alicdn.com/t/font_1031158_1uhr8ri0pk5.ttf") format("truetype"), url("//at.alicdn.com/t/font_1031158_1uhr8ri0pk5.svg#iconfont") format("svg"); }
</style></defs><path d="M512 0A512 512 0 1 1 0 512 512 512 0 0 1 512 0z m219.439407 576.474074H292.560593a36.560593 36.560593 0 0 0-21.731556 65.991111l99.024593 73.159111a36.560593 36.560593 0 0 0 43.463111-58.823111l-9.59526-7.168h327.68a36.560593 36.560593 0 0 0 0-73.159111z m-128.455111-241.170963a36.560593 36.560593 0 0 0 7.585185 51.2l9.709038 7.092148H292.484741a36.560593 36.560593 0 1 0 0 73.159111h438.992592a36.560593 36.560593 0 0 0 21.731556-65.991111l-99.100445-73.159111a36.560593 36.560593 0 0 0-51.124148 7.585185z" fill="#606266" p-id="2982"></path></svg>