<?xml version="1.0" encoding="utf-8"?>
<!-- Generator: Adobe Illustrator 21.0.0, SVG Export Plug-In . SVG Version: 6.00 Build 0)  -->
<svg version="1.1" id="图层_1" xmlns="http://www.w3.org/2000/svg" xmlns:xlink="http://www.w3.org/1999/xlink" x="0px" y="0px"
	 viewBox="0 0 200.2 200" style="enable-background:new 0 0 200.2 200;" xml:space="preserve">
<style type="text/css">
	.st0{fill:#1D1D1D;}
	.st1{font-family:'ArialMT';}
	.st2{font-size:96.8392px;}
</style>
<path class="st0" d="M99.8,12.6c-11.8,0-23.2,2.3-33.9,6.9c-10.4,4.4-19.7,10.7-27.7,18.7S23.9,55.5,19.5,65.9
	c-4.6,10.7-6.9,22.2-6.9,33.9c0,10.4,1.8,20.7,5.4,30.4c3.4,9.2,8.3,17.7,14.6,25.2c-0.2,0.4-0.6,0.9-1.3,1.8
	c-1.2,1.3-2.7,2.8-4.2,4.3c-4.4,4.2-8.6,8.2-7.8,13.5c0.2,1.6,1.2,4.7,5.1,6.7c2.7,1.4,8.3,3.1,28.9,4.3c12,0.7,24.5,0.9,31.2,1.1
	c1.1,0,2.1,0,2.8,0.1c1,0,1.9,0,2.9,0c1.6,0,3.3,0,4.8,0c1.6,0,3.2-0.1,4.8-0.1c48.3,0,87.6-39.1,87.6-87.2
	C187.4,51.7,148.1,12.6,99.8,12.6L99.8,12.6z M99.8,175.4c-1.7,0-3.4,0-5,0.1c-2.5,0-4.8,0.1-7.2,0c-0.7,0-1.7,0-2.9-0.1
	c-6.6-0.1-19-0.4-30.8-1.1c-11.9-0.7-18.1-1.5-21.2-2.2c0.8-0.8,1.7-1.7,2.4-2.3c2.6-2.5,5.3-5.1,7.1-8c4.2-6.7,1.1-11.6-0.4-13.4
	c-11.4-13.6-17.7-30.8-17.7-48.6c0-41.7,33.9-75.6,75.6-75.6c41.9,0,75.9,33.9,75.9,75.6C175.7,141.5,141.7,175.4,99.8,175.4z"/>
<text transform="matrix(1 0 0 1 62.6396 129.0566)" class="st1 st2">Q</text>
</svg>
